<svg width="480" height="320" viewBox="0 0 480 320" fill="none" xmlns="http://www.w3.org/2000/svg">
<path d="M404.842 144.107L388.258 168.103C386.074 171.259 382.53 174.299 378.253 174.626V175.362H396.698C401.595 175.362 405.166 172.174 407.585 168.663L424.615 144.108H404.842V144.107Z" fill="#ED1C24"/>
<path d="M404.842 144.107L388.258 168.099C386.074 171.259 382.53 174.299 378.253 174.625V175.362H396.698C401.595 175.362 405.166 172.173 407.585 168.662L424.615 144.107H404.842Z" fill="url(#paint0_linear_2802_318)"/>
<path d="M99.4021 175.362V146.744H107.756V175.362H99.4021ZM291.981 175.362L271.917 158.368V175.362H264.864V146.744H270.855L290.653 163.471V146.744H297.706V175.362H291.981ZM335.617 155.977C331.841 154.12 327.593 152.615 321.957 152.615C315.229 152.615 310.212 156.095 310.212 160.934C310.212 165.894 315.317 169.402 321.896 169.402C327.326 169.402 331.635 168.015 335.884 165.566V172.648C332.133 174.509 327.148 175.893 321.544 175.893C310.095 175.893 301.096 170.051 301.096 160.934C301.096 151.964 310.273 146.211 321.516 146.211C326.824 146.211 331.635 147.214 335.617 148.837V155.977ZM154.225 175.362V146.744H182.135V152.878H162.571V159.991H181.693V166.129H162.571V175.362H154.225ZM340.663 175.362V146.744H369.636V152.878H349.013V157.838H369.309V163.973H349.013V169.224H369.547V175.362H340.663V175.362ZM211.137 164.624L222.676 175.362H213.763C211.788 175.362 210.489 174.743 209.454 173.739L201.608 166.129C201.459 165.979 201.224 165.894 200.929 165.894H195.589V175.362H187.238V146.744H205.328C214.706 146.744 218.664 150.96 218.664 155.625C218.662 161.051 213.823 163.648 211.137 164.624V164.624ZM204.469 159.902C207.774 159.902 209.368 158.218 209.368 156.333C209.368 154.444 207.952 152.878 204.469 152.878H195.588V159.902H204.469ZM139.473 164.624L151.008 175.362H142.099C140.12 175.362 138.822 174.743 137.79 173.739L129.94 166.129C129.795 165.979 129.556 165.894 129.261 165.894H123.925V175.362H115.571V146.744H133.66C143.042 146.744 146.996 150.96 146.996 155.625C146.995 161.051 142.156 163.648 139.473 164.624ZM132.805 159.902C136.107 159.902 137.701 158.218 137.701 156.333C137.701 154.444 136.285 152.878 132.805 152.878H123.925V159.902H132.805ZM86.3367 175.362L82.6748 169.079H66.6855L63.3515 175.362H55.3846L71.3138 146.772H78.5721L96.6298 175.362H86.3367ZM69.8699 163.119H79.192L74.3531 154.383L69.8699 163.119ZM253.065 175.362L249.493 169.079H233.917L230.7 175.362H222.94L238.461 146.772H245.51L263.066 175.362H253.065ZM237.043 163.119H246.13L241.41 154.383L237.043 163.119Z" fill="#002157"/>
<defs>
<linearGradient id="paint0_linear_2802_318" x1="401.434" y1="144.107" x2="401.434" y2="175.362" gradientUnits="userSpaceOnUse">
<stop offset="0.3352" stop-color="#FF1E27"/>
<stop offset="0.6915" stop-color="#E81B23"/>
<stop offset="0.7841" stop-color="#A61319"/>
<stop offset="0.8719" stop-color="#9D1218"/>
<stop offset="0.9551" stop-color="#931116"/>
<stop offset="1" stop-color="#800F14"/>
</linearGradient>
</defs>
</svg>
