<svg width="480" height="320" viewBox="0 0 480 320" fill="none" xmlns="http://www.w3.org/2000/svg">
<g clip-path="url(#clip0_2802_338)">
<path d="M250.91 106.48C249.952 107.388 248.64 109.736 248.64 113.028C248.64 113.818 248.64 132.687 248.64 133.362C248.64 135.049 248.012 136.657 247.003 137.568C246.472 138.053 243.139 141.06 242.934 141.219H244.857C245.439 140.668 251.501 135.355 252.131 134.633C252.953 133.698 254.919 131.337 254.919 127.627C254.919 126.756 254.932 108.875 254.932 108.087C254.932 105.156 256.297 103.531 257.011 102.745C257.737 101.941 260.036 99.9642 260.625 99.4416L258.725 99.4224C258.178 99.9272 251.568 105.861 250.91 106.48Z" fill="#E23546"/>
<path d="M235.903 180.505L243.324 186.954H248.299C253.35 186.954 257.964 184.8 261.017 181.767C264.066 178.734 265.192 174.665 265.192 170.853C265.192 168.081 265.192 160.787 265.192 160.281C265.192 156.729 262.952 154.66 262.324 154.041C261.985 153.707 259.821 151.677 259.821 151.677V159.792C259.821 159.792 262.203 162.233 262.67 162.727C264.879 165.057 264.854 169.293 257.883 176.05C256.658 177.234 253.175 180.505 248.382 180.505C247.699 180.505 235.903 180.505 235.903 180.505Z" fill="#E23546"/>
<path d="M266.101 143.034C266.101 143.034 268.23 145.466 269.069 146.117C271.877 148.316 273.109 145.803 271.302 142.931C270.874 142.242 269.128 141.089 266.101 143.034ZM256.548 137.126C255.717 137.994 254.931 140.122 254.931 141.997C254.931 143.039 254.931 146.002 254.931 146.002C254.931 146.002 258.204 146.002 259.005 146.002C260.596 146.002 262.032 144.828 263.146 143.803C263.175 143.751 263.146 139.829 263.146 139.829C263.146 139.829 264.192 141.024 265.121 141.986C266.49 140.743 270.017 137.075 272.581 137.075C277.778 137.075 276.6 143.551 274.473 145.633C273.788 146.307 270.721 149.102 269.772 149.999C267.323 152.324 263.12 151.213 263.12 145.213C263.12 145.213 258.617 149.467 257.934 150.028C257.247 150.594 254.931 153.04 254.931 153.04C254.931 153.04 254.931 162.572 254.931 163.587C254.931 168.647 253.388 170.47 251.866 171.868C251.192 172.486 245.723 177.422 244.737 178.285H242.797C242.797 178.285 246.32 175.227 246.986 174.534C247.752 173.752 248.639 172.145 248.639 169.474C248.639 168.799 248.556 152.902 248.556 152.902C248.556 152.902 223.64 152.902 222.505 152.902C213.443 152.902 211.508 142.903 211.451 140.23C211.436 139.44 211.451 131.455 211.451 130.213C211.451 128.565 210.394 125.797 208.703 124.94H211.257C211.553 125.066 213.159 125.712 213.159 131.841C213.159 131.841 213.051 138.975 213.051 139.356C213.051 142.464 215.535 146.031 219.128 146.031C219.862 146.031 248.611 146.002 248.611 146.002C248.639 145.213 249.437 142.219 250.854 140.643C251.651 139.748 257.979 133.994 258.699 133.44L260.571 133.421C260.299 133.677 257.228 136.406 256.548 137.126Z" fill="#E23546"/>
<path d="M234.612 162.02C234.612 163.432 230.069 167.196 229.803 167.459C229.474 165.935 228.327 164.252 224.938 160.879L229.913 155.929C233.247 159.244 234.612 159.952 234.612 162.02Z" fill="#E23546"/>
<path d="M225.903 132.904C224.543 134.324 224.303 134.68 223.028 135.44C223.145 135.44 238.11 135.44 238.599 135.44C242.822 135.44 241.978 132.838 241.217 131.523C239.673 128.827 234.772 123.823 234.772 123.823C234.772 123.823 226.19 132.606 225.903 132.904ZM243.241 105.286C244.243 106.284 246.392 108.971 245.102 110.255C243.961 111.388 242.199 113.19 242.199 113.19C242.114 112.538 240.458 110.979 240.458 110.979C240.458 110.979 240.473 115.759 240.458 116.352C240.405 118.508 239.582 119.124 239.582 119.124C239.582 119.124 243.593 123.078 243.593 128.163C243.593 130.631 243.6 132.894 243.6 133.383C243.6 134.428 243.337 135.232 242.605 136.031C242.244 136.429 238.531 140.146 237.964 140.654C236.89 141.617 235.76 141.779 234.909 141.779C234.312 141.779 221.481 141.779 221.087 141.779C218.91 141.779 216.665 140.09 216.665 138.395C216.665 137.975 216.695 133.302 216.695 133.302C217.401 134.114 218.124 135.07 219.865 135.046C221.226 135.02 222.652 133.961 223.041 133.58C223.432 133.186 233.497 122.727 233.497 122.727C233.497 122.727 228.786 118.385 225.677 116.316C224.16 115.312 222.154 116.584 221.854 117.914C220.897 122.069 221.854 128.316 221.854 128.316C221.854 128.316 218.778 125.258 218.037 124.527C216.495 122.993 216.556 119.527 218.386 117.708C218.672 117.416 221.462 114.287 225.008 114.287C225.572 114.287 229.902 114.287 230.527 114.287C234.226 114.287 238.219 117.894 238.219 117.894C238.219 117.894 238.811 117.242 238.811 116.621C238.811 114.735 238.797 109.703 238.797 109.703C236.014 106.931 235.639 104.077 236.974 102.746C239.459 100.267 240.374 99.4005 240.374 99.4005C240.374 99.4005 240.343 102.4 243.241 105.286Z" fill="#E23546"/>
<path d="M208.152 146.994H205.596C205.596 146.994 208.346 148.497 208.346 152.365C208.346 153.386 208.346 163.878 208.346 164.721C208.346 172.758 215.015 180.195 223.119 180.195C224.481 180.195 228.978 180.195 229.884 180.195C233.946 180.195 235.372 179.217 237.832 177.047C238.728 176.252 239.898 174.947 240.332 174.47C241.745 172.895 243.25 171.625 243.25 167.48C243.25 166.467 243.25 163.997 243.25 163.432C243.25 159.938 241.211 158.484 240.236 157.509C239.606 156.879 237.87 155.236 237.87 155.236V163.518C237.87 163.518 239.574 165.323 240.331 165.916C243.841 168.673 241.054 173.485 237.781 173.485C237.131 173.485 223.829 173.49 222.921 173.49C217.203 173.49 210.052 168.773 210.052 160.608C210.052 159.512 210.052 154.608 210.052 153.892C210.055 146.994 208.152 146.994 208.152 146.994Z" fill="#E23546"/>
<path d="M224.443 162.044C224.443 163.455 219.895 167.216 219.629 167.48C219.303 165.956 218.153 164.27 214.761 160.897L219.741 155.947C223.074 159.266 224.443 159.975 224.443 162.044Z" fill="#E23546"/>
<path d="M172.385 217.029C171.57 217.029 165.29 217.021 164.423 217.021C161.932 217.021 162.127 214.939 161.909 213.201V201.814C161.909 201.814 163.655 201.772 165.572 201.772C167.785 201.772 170.548 201.448 173.228 202.958C173.228 202.958 171.297 198.36 165.557 198.36H161.909C161.909 198.36 161.909 197.706 161.909 196.12V194.709C161.909 194.709 161.909 191.521 161.121 190.613C161.121 190.613 166 190.63 166.345 190.632C170.909 190.638 174.445 190.565 178.123 192.963C178.123 192.963 177.418 186.981 168.577 186.981C163.559 186.981 152.109 186.981 151.39 186.981C151.39 186.981 154.459 189.528 154.277 194.694L154.459 215.382C154.459 220.616 156.506 220.702 156.506 220.702C156.713 220.702 157.759 220.702 162.392 220.702C163.164 220.702 164.085 220.702 165.065 220.702C167.541 220.702 170.794 220.702 173.434 220.702C177.285 220.702 178.623 218.018 178.623 216.515L178.68 214.519C178.68 214.519 177.458 217.029 172.385 217.029Z" fill="#E23546"/>
<path d="M217.439 215.266V200.797C217.439 195.186 212.797 193.688 209.372 193.688C204.844 193.688 203.47 197.483 202.895 198.757C201.869 195.247 198.309 193.642 195.389 193.642C189.932 193.642 188.532 198.842 188.532 198.842C188.532 198.842 188.4 193.83 183.971 193.83L179.652 193.838C179.652 193.838 182.135 194.864 182.135 199.199L182.131 215.265C182.131 220.62 184.295 220.671 184.295 220.671H191.462C191.273 220.62 188.706 218.686 188.706 215.224V200.976C188.796 200.336 189.877 198.211 192.968 198.211C194.663 198.211 196.564 199.99 196.534 202.026L196.523 215.26C196.523 220.656 198.658 220.668 198.658 220.668H205.85C205.85 220.668 203.097 218.755 203.097 215.21L203.074 200.96C203.341 200.161 204.292 198.248 207.011 198.248C209.132 198.248 210.912 200.03 210.861 202.068C210.861 202.068 210.846 214.154 210.851 215.276C210.887 220.696 212.989 220.653 212.989 220.653C216.737 220.653 220.183 220.667 220.183 220.667C220.183 220.667 217.439 218.79 217.439 215.266Z" fill="#E23546"/>
<path d="M229.934 215.258C229.934 218.825 232.692 220.669 232.692 220.669C232.692 220.669 229.277 220.656 225.527 220.656C225.527 220.656 223.393 220.68 223.393 215.303V215.279L223.403 199.156C223.403 194.915 220.923 193.824 220.923 193.824H225.197C226.723 193.824 229.913 193.824 229.913 199.825L229.902 215.232L229.934 215.258Z" fill="#E23546"/>
<path d="M251.92 195.86C251.92 195.86 251.229 193.923 248.259 193.923C243.764 193.923 242.669 199.207 242.669 199.207C242.295 195.038 241.171 193.795 238.059 193.795L233.72 193.801C233.72 193.801 236.241 194.835 236.241 199.159L236.229 215.254C236.229 220.612 238.385 220.663 238.385 220.663H245.483C245.301 220.612 242.742 218.675 242.742 215.205L242.753 202.048C242.925 200.842 243.549 199.928 244.508 199.31C246.857 197.825 250.081 198.19 251.921 200.389C251.921 200.389 251.92 197.572 251.92 195.86Z" fill="#E23546"/>
<path d="M285.135 196.838C287.564 196.838 289.377 197.889 289.377 197.889L289.393 193.824H283.407V187.681C283.407 187.681 281.857 190.41 278.615 193.018C276.586 194.684 272.32 196.731 272.32 196.731L276.866 196.815L276.857 215.482C276.857 220.657 279.04 220.657 279.04 220.657C282.96 220.657 286.127 220.671 286.127 220.671C286.127 220.671 283.397 218.825 283.397 215.434L283.407 196.83C285.255 196.835 283.963 196.838 285.135 196.838Z" fill="#E23546"/>
<path d="M302.446 203.233C303.633 201.052 304.566 195.542 300.51 195.843C295.863 196.189 296.756 208.569 296.756 208.569C298.297 206.873 300.633 206.53 302.446 203.233ZM306.844 204.953C302.825 209.092 299.67 208.444 297.221 211.5C297.221 211.5 297.615 215.629 300.743 217.088C301.832 217.586 306.251 218.993 309.106 214.029L309.099 218.745C309.099 218.745 307.259 220.701 301.419 220.701C294.454 220.701 289.633 215.228 289.633 207.807C289.633 200.507 293.566 193.723 300.913 193.691C308.182 193.645 312.121 199.455 306.844 204.953Z" fill="#E23546"/>
<path d="M226.601 191.646C228.45 191.646 229.952 190.224 229.952 188.425C229.952 186.627 228.45 185.168 226.601 185.168C224.753 185.168 223.328 186.627 223.328 188.425C223.328 190.224 224.753 191.646 226.601 191.646Z" fill="#E23546"/>
<path d="M322.567 213.369C322.621 215.272 320.921 217.782 317.288 217.782C313.724 217.782 312.157 213.976 312.157 213.976L312.128 218.779C312.128 218.779 314.768 220.679 318.895 220.679H318.891C323.806 220.679 328.651 217.011 328.503 211.884C328.452 210.065 327.828 208.519 326.855 207.187C325.189 205.014 322.185 203.407 319.803 202.038C316.57 200.177 317.006 196.177 321.749 196.557C325.302 196.841 326.807 200.245 326.807 200.245V195.771C326.807 195.771 324.069 193.623 319.938 193.623C315.647 193.623 311.83 196.447 311.937 200.037C312.03 203.213 313.332 205.285 315.953 207.179C316.993 207.953 318.232 208.695 319.663 209.492C321.761 210.637 322.531 212.05 322.567 213.369Z" fill="#E23546"/>
<path d="M264.146 199.733C264.146 202.362 261.905 203.537 260.441 204.175C256.181 206.027 250.73 208.068 250.73 214.224C250.73 218.344 253.732 220.708 257.95 220.708C261.183 220.708 262.807 219.047 263.611 217.482C264.099 220.517 265.621 220.656 265.621 220.656C269.346 220.656 272.76 220.678 272.76 220.678C272.76 220.678 269.975 218.797 269.975 215.276V200.2C269.975 196.58 265.949 193.778 261.677 193.778C257.568 193.778 254.975 195.75 254.975 195.75C254.975 196.959 254.975 200.422 254.975 200.422C254.975 200.422 256.441 196.714 260.156 196.714C263.239 196.714 264.146 198.218 264.146 199.733ZM260.279 217.613C258.028 217.613 256.495 216.413 256.495 213.87C256.495 207.821 262.019 206.575 263.501 204.785L263.491 216.074C263.443 216.118 262.497 217.613 260.279 217.613Z" fill="#E23546"/>
</g>
<defs>
<clipPath id="clip0_2802_338">
<rect width="180" height="124" fill="white" transform="translate(150 98)"/>
</clipPath>
</defs>
</svg>
