<svg width="480" height="320" viewBox="0 0 480 320" fill="none" xmlns="http://www.w3.org/2000/svg">
<path d="M72.6425 170.535H73.9475L73.8912 168.98" fill="#CC0000"/>
<path d="M80.086 162.154C76.6091 165.54 71.4096 163.378 71.9383 159.223C72.3462 156.018 76.2754 152.826 79.2488 151.093L79.2503 151.056C78.8626 150.687 78.0543 149.848 77.533 149.218C76.0915 147.485 73.5704 147.411 72.0644 149.313L63.5104 150.111V150.164L72.6814 150.695C74.3089 150.787 74.8384 152.261 73.2694 153.451C67.4456 157.86 66.4075 162.533 67.7088 166.234L67.665 166.254C67.1296 165.497 66.73 164.57 66.5128 163.597C63.7136 161.839 61.4438 158.493 61.4438 154.363C61.4438 148.357 66.3378 143.413 72.3922 143.413C78.4466 143.413 83.342 148.357 83.342 154.363C83.342 157.611 81.9183 160.37 80.086 162.154M82.2253 172.427H76.9605L78.8277 167.565H81.1478L79.6715 171.397H82.6205L82.2253 172.427ZM74.0176 172.427L73.9819 171.47H71.8872L71.1153 172.427H69.2015L73.0854 167.925C73.2708 167.711 73.5459 167.564 73.7988 167.564H75.8728L76.337 172.427L74.0176 172.427ZM66.0797 172.591C65.4561 172.591 64.9141 172.527 64.4677 172.427L64.8637 171.394C65.9247 171.519 66.8346 171.427 67.1897 170.499L68.3176 167.564H70.6363L69.395 170.799C68.7595 172.453 67.1935 172.591 66.0797 172.591M89.3348 161.497C89.446 160.419 89.4171 158.876 89.2503 157.735H89.2213C88.8743 159.392 87.8007 161.635 85.4834 163.467L85.4575 163.434C87.4877 161.265 88.7016 158.592 88.8899 155.838C88.5058 154.323 87.9126 152.857 87.1637 151.562L87.1377 151.572C87.55 154.354 86.8915 158.028 84.1918 161.008L84.1598 160.983C86.4845 157.637 87.0895 153.561 86.0759 149.897C82.9779 145.708 78.0024 142.99 72.3922 142.99C66.7826 142.99 61.8079 145.708 58.7092 149.897C57.6947 153.561 58.2998 157.636 60.6245 160.983L60.5948 161.008C57.8943 158.028 57.2373 154.354 57.6495 151.572L57.6221 151.562C56.8732 152.857 56.2792 154.323 55.8974 155.838C56.0842 158.592 57.2965 161.265 59.3276 163.434L59.3024 163.467C56.9844 161.635 55.9115 159.392 55.5645 157.735H55.5355C55.3687 158.876 55.3398 160.419 55.451 161.497C56.0346 163.329 57.2848 164.865 58.5631 165.972L58.5401 166.008C57.1127 165.119 56.3133 164.25 55.7684 163.483L55.7439 163.493C57.3122 171.13 64.1592 177.008 72.3922 177.008C80.6266 177.008 87.4722 171.13 89.0419 163.493L89.0174 163.483C88.4732 164.25 87.6731 165.119 86.2457 166.008L86.2235 165.972C87.5011 164.865 88.7498 163.329 89.3348 161.497" fill="#CC0000"/>
<path d="M422.315 163.142C420.54 167.757 414.42 169.187 407.807 169.187C401.191 169.187 396.95 167.751 397.942 163.142H406.346C406.126 164.376 406.873 165.161 409.358 165.161C411.841 165.161 413.449 164.355 413.906 163.142C415.068 160.13 398.437 163.074 401.083 156.176C402.565 152.317 408.401 150.502 414.982 150.502C421.56 150.502 425.303 151.925 424.51 156.174H416.27C416.402 155.036 416.049 154.173 413.575 154.173C411.096 154.173 409.772 155.052 409.342 156.176C408.148 159.253 424.956 156.257 422.315 163.142M275.224 168.663H266.817L273.586 151.037H281.995M338.794 168.663H330.395L337.161 151.037H345.56M392.943 168.663H372.515L379.276 151.037H399.714L398.416 154.42H386.383L385.017 157.978H395.022L393.725 161.356H383.718L382.352 164.925H394.376M225.929 168.663H219.133L213.434 158.252L209.435 168.663H202.653L209.414 151.037H217.309L222.347 160.299L225.896 151.037H232.695M367.3 168.663H360.499L354.8 158.252L350.801 168.663H344.021L350.785 151.037H358.681L363.713 160.299L367.263 151.037H374.066M123.864 162.762C121.565 168.757 115.89 169.254 111.851 169.254C109.587 169.254 107.629 169.026 106.01 168.663L107.446 164.927C111.294 165.376 114.589 165.038 115.874 161.679L119.962 151.04H128.369M172.091 156.655C171.594 157.943 170.01 158.885 168.48 158.885H163.816L165.53 154.423H170.209C171.731 154.423 172.584 155.372 172.091 156.655M171.489 151.04H158.422L151.655 168.666H160.059L162.515 162.268H167.186C174.953 162.268 179.135 160.189 180.493 156.655C181.848 153.124 179.266 151.04 171.489 151.04M300.872 156.655C300.371 157.943 298.787 158.885 297.263 158.885H292.594L294.307 154.423H298.986C300.514 154.423 301.366 155.372 300.872 156.655ZM300.272 151.04H287.202L280.438 168.666H288.842L291.295 162.268H293.834L295.498 168.666H304.674L302.426 161.628C306.151 160.756 308.361 159.043 309.27 156.655C310.636 153.124 308.047 151.04 300.272 151.04M318.683 164.927L324.024 151.04H315.62L308.862 168.666H327.937L329.373 164.927M136.135 161.813L140.659 156.174L140.869 161.813H136.135ZM147.845 151.04H140.328C139.414 151.04 138.416 151.575 137.749 152.344L123.662 168.666H130.609L133.403 165.196H140.995L141.127 168.666H149.534M187.122 161.813L191.651 156.174L191.855 161.813H187.122ZM198.834 151.04H191.315C190.403 151.04 189.405 151.575 188.733 152.344L174.654 168.666H181.595L184.392 165.196H191.982L192.111 168.666H200.52M251.286 161.813L255.815 156.174L256.025 161.813H251.286ZM263.001 151.04H255.484C254.564 151.04 253.572 151.575 252.9 152.344L238.816 168.666H245.765L248.554 165.196H256.146L256.28 168.666H264.679" fill="black"/>
</svg>
